<svg xmlns="http://www.w3.org/2000/svg" xmlns:xlink="http://www.w3.org/1999/xlink" width="500" zoomAndPan="magnify" viewBox="0 0 375 374.999991" height="500" preserveAspectRatio="xMidYMid meet" version="1.0"><defs><g/><clipPath id="211557fd92"><path d="M 95.914062 71.152344 L 273.664062 71.152344 L 273.664062 250 L 95.914062 250 Z M 95.914062 71.152344 " clip-rule="nonzero"/></clipPath><clipPath id="cbf7614b72"><path d="M 183 275 L 198 275 L 198 289 L 183 289 Z M 183 275 " clip-rule="nonzero"/></clipPath><clipPath id="c1744fb50b"><path d="M 183.113281 275.59375 L 197.132812 273.039062 L 199.820312 287.796875 L 185.804688 290.351562 Z M 183.113281 275.59375 " clip-rule="nonzero"/></clipPath><clipPath id="5a2cbcca70"><path d="M 183.113281 275.59375 L 197.132812 273.039062 L 199.820312 287.796875 L 185.804688 290.351562 Z M 183.113281 275.59375 " clip-rule="nonzero"/></clipPath></defs><rect x="-37.5" width="450" fill="#ffffff" y="-37.499999" height="449.999989" fill-opacity="1"/><rect x="-37.5" width="450" fill="#ffffff" y="-37.499999" height="449.999989" fill-opacity="1"/><g fill="#b69780" fill-opacity="1"><g transform="translate(105.347041, 279.127531)"><g><path d="M 22.078125 -48.34375 C 23.929688 -47.570312 25.457031 -46.519531 26.65625 -45.1875 C 27.863281 -43.851562 28.753906 -42.285156 29.328125 -40.484375 C 29.441406 -40.085938 29.503906 -39.675781 29.515625 -39.25 C 29.515625 -39.15625 29.519531 -39.0625 29.53125 -38.96875 C 29.550781 -38.644531 29.394531 -38.40625 29.0625 -38.25 C 28.882812 -38.15625 28.722656 -38.125 28.578125 -38.15625 C 28.429688 -38.1875 28.328125 -38.28125 28.265625 -38.4375 C 28.160156 -38.726562 28.0625 -39.035156 27.96875 -39.359375 C 27.957031 -39.421875 27.9375 -39.5 27.90625 -39.59375 C 27.164062 -41.894531 25.8125 -43.832031 23.84375 -45.40625 C 21.25 -47.5 18.253906 -48.195312 14.859375 -47.5 C 11.910156 -46.863281 9.265625 -45.671875 6.921875 -43.921875 C 3.722656 -41.597656 1.140625 -38.789062 -0.828125 -35.5 C -1.421875 -34.519531 -1.910156 -33.519531 -2.296875 -32.5 C -3.597656 -29.0625 -3.46875 -25.695312 -1.90625 -22.40625 C -1.394531 -21.332031 -0.789062 -20.328125 -0.09375 -19.390625 C 0.59375 -18.460938 1.332031 -17.5625 2.125 -16.6875 C 3.90625 -14.75 5.804688 -12.925781 7.828125 -11.21875 C 8.910156 -10.289062 9.988281 -9.378906 11.0625 -8.484375 C 12.59375 -7.179688 14.117188 -5.875 15.640625 -4.5625 C 17.535156 -2.9375 19.285156 -1.179688 20.890625 0.703125 C 21.398438 1.304688 21.867188 1.9375 22.296875 2.59375 C 22.734375 3.25 23.085938 3.945312 23.359375 4.6875 C 24.128906 6.6875 23.585938 8.3125 21.734375 9.5625 C 20.753906 10.25 19.675781 10.6875 18.5 10.875 C 13.257812 11.632812 8.953125 10.148438 5.578125 6.421875 C 4.722656 5.421875 4.15625 4.347656 3.875 3.203125 C 3.59375 2.066406 3.519531 0.878906 3.65625 -0.359375 C 3.945312 -3.148438 4.972656 -5.707031 6.734375 -8.03125 C 6.910156 -8.257812 7.082031 -8.484375 7.25 -8.703125 C 7.300781 -8.816406 7.367188 -8.914062 7.453125 -9 C 7.234375 -9.332031 6.984375 -9.609375 6.703125 -9.828125 C 6.597656 -9.898438 6.515625 -9.96875 6.453125 -10.03125 C 4.328125 -11.851562 2.328125 -13.785156 0.453125 -15.828125 C -0.847656 -17.234375 -1.976562 -18.75 -2.9375 -20.375 C -5.363281 -24.539062 -5.59375 -28.828125 -3.625 -33.234375 C -2.519531 -35.578125 -1.140625 -37.695312 0.515625 -39.59375 C 2.171875 -41.5 4.082031 -43.226562 6.25 -44.78125 C 8.363281 -46.300781 10.695312 -47.457031 13.25 -48.25 C 14.289062 -48.5625 15.359375 -48.785156 16.453125 -48.921875 C 17.546875 -49.066406 18.644531 -49.070312 19.75 -48.9375 C 20.5625 -48.84375 21.335938 -48.644531 22.078125 -48.34375 Z M 8.078125 -8.0625 C 7.941406 -7.914062 7.820312 -7.75 7.71875 -7.5625 C 6.957031 -6.40625 6.390625 -5.191406 6.015625 -3.921875 C 5.648438 -2.660156 5.429688 -1.351562 5.359375 0 C 5.242188 2.707031 6.28125 4.957031 8.46875 6.75 C 10.570312 8.476562 13.035156 9.476562 15.859375 9.75 C 17.148438 9.894531 18.414062 9.773438 19.65625 9.390625 C 21.570312 8.765625 22.25 7.539062 21.6875 5.71875 C 21.394531 4.875 20.984375 4.070312 20.453125 3.3125 C 19.648438 2.132812 18.742188 1.03125 17.734375 0 C 16.492188 -1.3125 15.1875 -2.5625 13.8125 -3.75 C 12.445312 -4.9375 11.066406 -6.113281 9.671875 -7.28125 C 9.359375 -7.53125 9.046875 -7.785156 8.734375 -8.046875 C 8.660156 -8.117188 8.570312 -8.164062 8.46875 -8.1875 C 8.425781 -8.21875 8.382812 -8.242188 8.34375 -8.265625 C 8.300781 -8.242188 8.265625 -8.21875 8.234375 -8.1875 C 8.160156 -8.15625 8.109375 -8.113281 8.078125 -8.0625 Z M 8.078125 -8.0625 "/></g></g></g><g fill="#b69780" fill-opacity="1"><g transform="translate(213.12624, 285.45473)"><g><path d="M 1.078125 -11.1875 C 1.253906 -11.164062 1.390625 -11.097656 1.484375 -10.984375 C 1.578125 -10.867188 1.609375 -10.738281 1.578125 -10.59375 C 1.503906 -10.238281 1.332031 -9.9375 1.0625 -9.6875 C 0.988281 -9.59375 0.878906 -9.53125 0.734375 -9.5 C 0.597656 -9.46875 0.476562 -9.484375 0.375 -9.546875 C 0.28125 -9.609375 0.21875 -9.691406 0.1875 -9.796875 C 0.15625 -9.898438 0.132812 -10.023438 0.125 -10.171875 C 0.132812 -10.191406 0.140625 -10.222656 0.140625 -10.265625 C 0.148438 -10.390625 0.175781 -10.53125 0.21875 -10.6875 C 0.332031 -11.0625 0.617188 -11.226562 1.078125 -11.1875 Z M 0.890625 -7.640625 C 1.046875 -7.660156 1.1875 -7.660156 1.3125 -7.640625 C 1.445312 -7.617188 1.515625 -7.566406 1.515625 -7.484375 C 1.640625 -6.023438 1.671875 -4.441406 1.609375 -2.734375 C 1.554688 -1.023438 1.34375 0.707031 0.96875 2.46875 C 0.59375 4.238281 0 5.945312 -0.8125 7.59375 C -1.457031 8.914062 -2.285156 10.132812 -3.296875 11.25 C -4.316406 12.375 -5.488281 13.226562 -6.8125 13.8125 C -8.144531 14.40625 -9.625 14.582031 -11.25 14.34375 C -12.1875 14.1875 -12.914062 13.804688 -13.4375 13.203125 C -13.957031 12.609375 -14.15625 11.804688 -14.03125 10.796875 C -13.914062 9.785156 -13.378906 8.582031 -12.421875 7.1875 C -11.460938 5.789062 -9.96875 4.207031 -7.9375 2.4375 C -7 1.632812 -5.691406 0.664062 -4.015625 -0.46875 C -2.335938 -1.601562 -1.007812 -2.382812 -0.03125 -2.8125 C 0.0195312 -3.332031 0.046875 -3.929688 0.046875 -4.609375 C 0.0546875 -5.296875 0.0546875 -5.929688 0.046875 -6.515625 C 0.046875 -6.835938 0.0390625 -7.117188 0.03125 -7.359375 C 0.09375 -7.460938 0.203125 -7.535156 0.359375 -7.578125 C 0.523438 -7.617188 0.675781 -7.640625 0.8125 -7.640625 C 0.851562 -7.640625 0.878906 -7.640625 0.890625 -7.640625 Z M -0.0625 -1.109375 C -0.0625 -1.117188 -0.0625 -1.128906 -0.0625 -1.140625 C -0.0625 -1.222656 -0.0546875 -1.332031 -0.046875 -1.46875 C -0.046875 -1.601562 -0.0507812 -1.707031 -0.0625 -1.78125 C -0.0820312 -1.863281 -0.144531 -1.878906 -0.25 -1.828125 C -0.351562 -1.753906 -0.46875 -1.671875 -0.59375 -1.578125 C -1.425781 -1.003906 -2.503906 -0.207031 -3.828125 0.8125 C -5.160156 1.832031 -6.5 2.976562 -7.84375 4.25 C -8.113281 4.507812 -8.492188 4.894531 -8.984375 5.40625 C -9.472656 5.925781 -9.984375 6.515625 -10.515625 7.171875 C -11.046875 7.828125 -11.519531 8.503906 -11.9375 9.203125 C -12.351562 9.898438 -12.613281 10.554688 -12.71875 11.171875 C -12.820312 11.785156 -12.679688 12.304688 -12.296875 12.734375 C -11.816406 13.242188 -11.101562 13.457031 -10.15625 13.375 C -9.207031 13.289062 -8.171875 12.914062 -7.046875 12.25 C -5.929688 11.59375 -4.847656 10.65625 -3.796875 9.4375 C -2.753906 8.21875 -1.890625 6.722656 -1.203125 4.953125 C -0.515625 3.191406 -0.132812 1.171875 -0.0625 -1.109375 Z M -0.0625 -1.109375 "/></g></g></g><g fill="#b69780" fill-opacity="1"><g transform="translate(217.023705, 285.381278)"><g><path d="M 0.921875 -0.875 C 0.796875 -0.863281 0.648438 -0.953125 0.484375 -1.140625 C 0.328125 -1.328125 0.1875 -1.65625 0.0625 -2.125 C -0.0507812 -2.601562 -0.101562 -3.265625 -0.09375 -4.109375 C -0.09375 -4.191406 -0.09375 -4.296875 -0.09375 -4.421875 C -0.101562 -4.742188 -0.0976562 -5.125 -0.078125 -5.5625 C -0.0546875 -6 -0.00390625 -6.390625 0.078125 -6.734375 C 0.171875 -7.078125 0.316406 -7.289062 0.515625 -7.375 C 1.117188 -7.550781 1.453125 -7.34375 1.515625 -6.75 C 1.515625 -6.570312 1.515625 -6.390625 1.515625 -6.203125 C 1.492188 -6.117188 1.484375 -6.03125 1.484375 -5.9375 C 1.472656 -5.664062 1.46875 -5.398438 1.46875 -5.140625 C 1.46875 -4.910156 1.460938 -4.691406 1.453125 -4.484375 C 1.453125 -4.335938 1.453125 -4.128906 1.453125 -3.859375 C 1.484375 -3.472656 1.5 -3.054688 1.5 -2.609375 C 1.5 -2.160156 1.457031 -1.769531 1.375 -1.4375 C 1.289062 -1.101562 1.140625 -0.914062 0.921875 -0.875 Z M 1.34375 -9.40625 C 1.269531 -9.332031 1.171875 -9.28125 1.046875 -9.25 C 0.921875 -9.226562 0.820312 -9.238281 0.75 -9.28125 C 0.675781 -9.351562 0.625 -9.429688 0.59375 -9.515625 C 0.570312 -9.597656 0.5625 -9.703125 0.5625 -9.828125 C 0.570312 -9.859375 0.578125 -9.890625 0.578125 -9.921875 C 0.585938 -10.035156 0.617188 -10.144531 0.671875 -10.25 C 0.785156 -10.582031 1.039062 -10.734375 1.4375 -10.703125 C 1.570312 -10.691406 1.675781 -10.632812 1.75 -10.53125 C 1.832031 -10.425781 1.863281 -10.316406 1.84375 -10.203125 C 1.738281 -9.890625 1.570312 -9.625 1.34375 -9.40625 Z M 1.34375 -9.40625 "/></g></g></g><g fill="#b69780" fill-opacity="1"><g transform="translate(220.649999, 285.312936)"><g><path d="M 11.75 -3.828125 C 11.75 -3.828125 11.753906 -3.835938 11.765625 -3.859375 C 11.828125 -3.910156 11.960938 -4.039062 12.171875 -4.25 C 12.390625 -4.457031 12.613281 -4.648438 12.84375 -4.828125 C 13.070312 -5.015625 13.242188 -5.109375 13.359375 -5.109375 C 13.472656 -5.117188 13.445312 -4.957031 13.28125 -4.625 C 13.269531 -4.59375 13.238281 -4.546875 13.1875 -4.484375 C 13.144531 -4.421875 13.097656 -4.359375 13.046875 -4.296875 C 13.035156 -4.273438 13.023438 -4.257812 13.015625 -4.25 C 12.023438 -3.175781 11.253906 -2.421875 10.703125 -1.984375 C 10.148438 -1.554688 9.601562 -1.363281 9.0625 -1.40625 C 8.476562 -1.445312 8.085938 -1.695312 7.890625 -2.15625 C 7.691406 -2.625 7.597656 -3.203125 7.609375 -3.890625 C 7.617188 -4.578125 7.660156 -5.269531 7.734375 -5.96875 C 7.828125 -6.71875 7.867188 -7.347656 7.859375 -7.859375 C 7.847656 -8.378906 7.695312 -8.664062 7.40625 -8.71875 C 7.1875 -8.738281 6.945312 -8.484375 6.6875 -7.953125 C 6.4375 -7.421875 6.191406 -6.789062 5.953125 -6.0625 C 5.710938 -5.332031 5.515625 -4.675781 5.359375 -4.09375 C 5.210938 -3.59375 5.109375 -3.265625 5.046875 -3.109375 C 4.960938 -2.878906 4.804688 -2.726562 4.578125 -2.65625 C 4.359375 -2.59375 4.140625 -2.613281 3.921875 -2.71875 C 3.765625 -2.78125 3.675781 -2.882812 3.65625 -3.03125 C 3.601562 -3.375 3.578125 -3.734375 3.578125 -4.109375 C 3.578125 -4.347656 3.566406 -4.582031 3.546875 -4.8125 C 3.546875 -4.863281 3.546875 -4.9375 3.546875 -5.03125 C 3.554688 -5.132812 3.554688 -5.242188 3.546875 -5.359375 C 3.535156 -5.472656 3.519531 -5.570312 3.5 -5.65625 C 3.476562 -5.738281 3.441406 -5.789062 3.390625 -5.8125 C 3.273438 -5.8125 3.140625 -5.671875 2.984375 -5.390625 C 2.828125 -5.117188 2.664062 -4.785156 2.5 -4.390625 C 2.34375 -4.003906 2.207031 -3.65625 2.09375 -3.34375 C 2 -3.0625 1.929688 -2.867188 1.890625 -2.765625 C 1.867188 -2.722656 1.847656 -2.691406 1.828125 -2.671875 C 1.703125 -2.398438 1.570312 -2.132812 1.4375 -1.875 C 1.320312 -1.664062 1.144531 -1.535156 0.90625 -1.484375 C 0.363281 -1.398438 0.0664062 -1.609375 0.015625 -2.109375 C -0.0351562 -3.378906 -0.0820312 -4.660156 -0.125 -5.953125 C -0.125 -6.203125 -0.0234375 -6.363281 0.171875 -6.4375 C 0.367188 -6.519531 0.570312 -6.523438 0.78125 -6.453125 C 1 -6.378906 1.128906 -6.253906 1.171875 -6.078125 C 1.179688 -5.992188 1.1875 -5.898438 1.1875 -5.796875 C 1.257812 -5.242188 1.332031 -4.96875 1.40625 -4.96875 C 1.488281 -4.96875 1.664062 -5.207031 1.9375 -5.6875 C 2.070312 -5.945312 2.210938 -6.195312 2.359375 -6.4375 C 2.546875 -6.757812 2.785156 -7.046875 3.078125 -7.296875 C 3.410156 -7.515625 3.722656 -7.585938 4.015625 -7.515625 C 4.316406 -7.441406 4.554688 -7.222656 4.734375 -6.859375 C 4.847656 -6.640625 4.945312 -6.546875 5.03125 -6.578125 C 5.03125 -6.578125 5.039062 -6.585938 5.0625 -6.609375 C 5.082031 -6.691406 5.191406 -6.941406 5.390625 -7.359375 C 5.585938 -7.773438 5.847656 -8.226562 6.171875 -8.71875 C 6.492188 -9.21875 6.851562 -9.628906 7.25 -9.953125 C 7.539062 -10.148438 7.847656 -10.265625 8.171875 -10.296875 C 8.492188 -10.335938 8.78125 -10.257812 9.03125 -10.0625 C 9.28125 -9.863281 9.429688 -9.519531 9.484375 -9.03125 C 9.523438 -8.632812 9.515625 -8.066406 9.453125 -7.328125 C 9.390625 -6.597656 9.3125 -5.882812 9.21875 -5.1875 C 9.144531 -4.539062 9.097656 -4.035156 9.078125 -3.671875 C 9.054688 -2.941406 9.1875 -2.546875 9.46875 -2.484375 C 9.757812 -2.421875 10.113281 -2.539062 10.53125 -2.84375 C 10.957031 -3.144531 11.363281 -3.472656 11.75 -3.828125 Z M 11.75 -3.828125 "/></g></g></g><g fill="#b69780" fill-opacity="1"><g transform="translate(234.193413, 285.057693)"><g><path d="M 11.75 -3.828125 C 11.75 -3.828125 11.753906 -3.835938 11.765625 -3.859375 C 11.828125 -3.910156 11.960938 -4.039062 12.171875 -4.25 C 12.390625 -4.457031 12.613281 -4.648438 12.84375 -4.828125 C 13.070312 -5.015625 13.242188 -5.109375 13.359375 -5.109375 C 13.472656 -5.117188 13.445312 -4.957031 13.28125 -4.625 C 13.269531 -4.59375 13.238281 -4.546875 13.1875 -4.484375 C 13.144531 -4.421875 13.097656 -4.359375 13.046875 -4.296875 C 13.035156 -4.273438 13.023438 -4.257812 13.015625 -4.25 C 12.023438 -3.175781 11.253906 -2.421875 10.703125 -1.984375 C 10.148438 -1.554688 9.601562 -1.363281 9.0625 -1.40625 C 8.476562 -1.445312 8.085938 -1.695312 7.890625 -2.15625 C 7.691406 -2.625 7.597656 -3.203125 7.609375 -3.890625 C 7.617188 -4.578125 7.660156 -5.269531 7.734375 -5.96875 C 7.828125 -6.71875 7.867188 -7.347656 7.859375 -7.859375 C 7.847656 -8.378906 7.695312 -8.664062 7.40625 -8.71875 C 7.1875 -8.738281 6.945312 -8.484375 6.6875 -7.953125 C 6.4375 -7.421875 6.191406 -6.789062 5.953125 -6.0625 C 5.710938 -5.332031 5.515625 -4.675781 5.359375 -4.09375 C 5.210938 -3.59375 5.109375 -3.265625 5.046875 -3.109375 C 4.960938 -2.878906 4.804688 -2.726562 4.578125 -2.65625 C 4.359375 -2.59375 4.140625 -2.613281 3.921875 -2.71875 C 3.765625 -2.78125 3.675781 -2.882812 3.65625 -3.03125 C 3.601562 -3.375 3.578125 -3.734375 3.578125 -4.109375 C 3.578125 -4.347656 3.566406 -4.582031 3.546875 -4.8125 C 3.546875 -4.863281 3.546875 -4.9375 3.546875 -5.03125 C 3.554688 -5.132812 3.554688 -5.242188 3.546875 -5.359375 C 3.535156 -5.472656 3.519531 -5.570312 3.5 -5.65625 C 3.476562 -5.738281 3.441406 -5.789062 3.390625 -5.8125 C 3.273438 -5.8125 3.140625 -5.671875 2.984375 -5.390625 C 2.828125 -5.117188 2.664062 -4.785156 2.5 -4.390625 C 2.34375 -4.003906 2.207031 -3.65625 2.09375 -3.34375 C 2 -3.0625 1.929688 -2.867188 1.890625 -2.765625 C 1.867188 -2.722656 1.847656 -2.691406 1.828125 -2.671875 C 1.703125 -2.398438 1.570312 -2.132812 1.4375 -1.875 C 1.320312 -1.664062 1.144531 -1.535156 0.90625 -1.484375 C 0.363281 -1.398438 0.0664062 -1.609375 0.015625 -2.109375 C -0.0351562 -3.378906 -0.0820312 -4.660156 -0.125 -5.953125 C -0.125 -6.203125 -0.0234375 -6.363281 0.171875 -6.4375 C 0.367188 -6.519531 0.570312 -6.523438 0.78125 -6.453125 C 1 -6.378906 1.128906 -6.253906 1.171875 -6.078125 C 1.179688 -5.992188 1.1875 -5.898438 1.1875 -5.796875 C 1.257812 -5.242188 1.332031 -4.96875 1.40625 -4.96875 C 1.488281 -4.96875 1.664062 -5.207031 1.9375 -5.6875 C 2.070312 -5.945312 2.210938 -6.195312 2.359375 -6.4375 C 2.546875 -6.757812 2.785156 -7.046875 3.078125 -7.296875 C 3.410156 -7.515625 3.722656 -7.585938 4.015625 -7.515625 C 4.316406 -7.441406 4.554688 -7.222656 4.734375 -6.859375 C 4.847656 -6.640625 4.945312 -6.546875 5.03125 -6.578125 C 5.03125 -6.578125 5.039062 -6.585938 5.0625 -6.609375 C 5.082031 -6.691406 5.191406 -6.941406 5.390625 -7.359375 C 5.585938 -7.773438 5.847656 -8.226562 6.171875 -8.71875 C 6.492188 -9.21875 6.851562 -9.628906 7.25 -9.953125 C 7.539062 -10.148438 7.847656 -10.265625 8.171875 -10.296875 C 8.492188 -10.335938 8.78125 -10.257812 9.03125 -10.0625 C 9.28125 -9.863281 9.429688 -9.519531 9.484375 -9.03125 C 9.523438 -8.632812 9.515625 -8.066406 9.453125 -7.328125 C 9.390625 -6.597656 9.3125 -5.882812 9.21875 -5.1875 C 9.144531 -4.539062 9.097656 -4.035156 9.078125 -3.671875 C 9.054688 -2.941406 9.1875 -2.546875 9.46875 -2.484375 C 9.757812 -2.421875 10.113281 -2.539062 10.53125 -2.84375 C 10.957031 -3.144531 11.363281 -3.472656 11.75 -3.828125 Z M 11.75 -3.828125 "/></g></g></g><g fill="#b69780" fill-opacity="1"><g transform="translate(237.149475, 277.333371)"><g><path d="M 29.5 -36.9375 C 29.6875 -36.84375 29.800781 -36.71875 29.84375 -36.5625 C 29.882812 -36.40625 29.90625 -36.238281 29.90625 -36.0625 C 29.90625 -36.039062 29.90625 -36.023438 29.90625 -36.015625 C 29.90625 -35.546875 29.90625 -35.070312 29.90625 -34.59375 C 29.925781 -32.945312 29.925781 -31.296875 29.90625 -29.640625 C 29.875 -26.460938 29.816406 -23.285156 29.734375 -20.109375 C 29.660156 -17.773438 29.582031 -15.445312 29.5 -13.125 C 29.46875 -11.65625 29.421875 -10.195312 29.359375 -8.75 C 29.253906 -5.25 29.035156 -1.78125 28.703125 1.65625 C 28.515625 3.84375 28.253906 6.007812 27.921875 8.15625 C 27.585938 10.3125 27.113281 12.4375 26.5 14.53125 C 26.101562 15.96875 25.554688 17.34375 24.859375 18.65625 C 24.273438 19.695312 23.460938 20.535156 22.421875 21.171875 C 21.804688 21.503906 21.234375 21.648438 20.703125 21.609375 C 20.171875 21.578125 19.691406 21.410156 19.265625 21.109375 C 18.671875 20.773438 18.203125 20.3125 17.859375 19.71875 C 17.398438 18.945312 17.097656 18.125 16.953125 17.25 C 16.691406 15.539062 16.71875 13.90625 17.03125 12.34375 C 17.351562 10.78125 17.910156 9.269531 18.703125 7.8125 C 20.410156 4.625 22.800781 2.078125 25.875 0.171875 C 26.570312 -0.210938 26.941406 -0.796875 26.984375 -1.578125 C 27.023438 -3.066406 27.082031 -4.566406 27.15625 -6.078125 C 27.25 -7.597656 27.328125 -9.128906 27.390625 -10.671875 C 27.492188 -13.441406 27.578125 -16.21875 27.640625 -19 C 27.648438 -19.75 27.648438 -20.507812 27.640625 -21.28125 C 27.640625 -21.507812 27.640625 -21.738281 27.640625 -21.96875 C 27.597656 -21.925781 27.5625 -21.878906 27.53125 -21.828125 C 27.507812 -21.773438 27.492188 -21.710938 27.484375 -21.640625 C 27.484375 -21.609375 27.46875 -21.582031 27.4375 -21.5625 C 27.289062 -21 27.140625 -20.441406 26.984375 -19.890625 C 26.660156 -18.765625 26.332031 -17.644531 26 -16.53125 C 24.976562 -13.15625 23.644531 -9.910156 22 -6.796875 C 21.507812 -5.910156 20.984375 -5.050781 20.421875 -4.21875 C 19.859375 -3.394531 19.21875 -2.625 18.5 -1.90625 C 17.757812 -1.15625 16.90625 -0.585938 15.9375 -0.203125 C 14.738281 0.304688 13.671875 0.253906 12.734375 -0.359375 C 12.253906 -0.640625 11.800781 -1.0625 11.375 -1.625 C 10.8125 -2.320312 10.398438 -3.09375 10.140625 -3.9375 C 9.992188 -4.539062 9.832031 -5.140625 9.65625 -5.734375 C 9.613281 -5.878906 9.578125 -6.023438 9.546875 -6.171875 C 9.492188 -6.554688 9.367188 -6.882812 9.171875 -7.15625 C 9.171875 -7.15625 9.171875 -7.160156 9.171875 -7.171875 C 9.160156 -7.171875 9.15625 -7.171875 9.15625 -7.171875 C 9.050781 -7.191406 8.9375 -7.179688 8.8125 -7.140625 C 8.6875 -7.109375 8.5625 -7.066406 8.4375 -7.015625 C 8.28125 -6.941406 8.132812 -6.898438 8 -6.890625 C 7.09375 -6.734375 6.191406 -6.75 5.296875 -6.9375 C 4.398438 -7.125 3.566406 -7.457031 2.796875 -7.9375 C 1.773438 -8.53125 0.914062 -9.3125 0.21875 -10.28125 C -0.46875 -11.25 -0.898438 -12.347656 -1.078125 -13.578125 C -1.285156 -15.421875 -1.171875 -17.21875 -0.734375 -18.96875 C -0.171875 -21.226562 0.648438 -23.328125 1.734375 -25.265625 C 2.816406 -27.203125 4.144531 -29 5.71875 -30.65625 C 6.3125 -31.3125 6.992188 -31.863281 7.765625 -32.3125 C 8.179688 -32.582031 8.644531 -32.769531 9.15625 -32.875 C 9.675781 -32.96875 10.101562 -32.882812 10.4375 -32.625 C 10.820312 -32.445312 11.101562 -32.097656 11.28125 -31.578125 C 11.476562 -30.898438 11.570312 -30.203125 11.5625 -29.484375 C 11.5625 -29.484375 11.5625 -29.472656 11.5625 -29.453125 C 11.601562 -27.941406 11.523438 -26.429688 11.328125 -24.921875 C 11.117188 -22.859375 10.960938 -20.78125 10.859375 -18.6875 C 10.753906 -16.601562 10.734375 -14.503906 10.796875 -12.390625 C 10.847656 -11.566406 10.921875 -10.742188 11.015625 -9.921875 C 11.023438 -9.785156 11.039062 -9.648438 11.0625 -9.515625 C 11.0625 -9.421875 11.085938 -9.335938 11.140625 -9.265625 C 11.234375 -9.265625 11.3125 -9.28125 11.375 -9.3125 C 11.625 -9.457031 11.867188 -9.601562 12.109375 -9.75 C 12.253906 -9.832031 12.394531 -9.90625 12.53125 -9.96875 C 12.632812 -10.039062 12.742188 -10.09375 12.859375 -10.125 C 12.972656 -10.164062 13.097656 -10.179688 13.234375 -10.171875 C 13.296875 -10.148438 13.351562 -10.125 13.40625 -10.09375 C 13.457031 -10.070312 13.488281 -10.046875 13.5 -10.015625 C 13.550781 -10.015625 13.597656 -10 13.640625 -9.96875 C 13.691406 -9.9375 13.722656 -9.90625 13.734375 -9.875 C 13.753906 -9.800781 13.765625 -9.722656 13.765625 -9.640625 C 13.765625 -9.566406 13.75 -9.503906 13.71875 -9.453125 C 13.59375 -9.316406 13.441406 -9.203125 13.265625 -9.109375 C 12.953125 -8.921875 12.640625 -8.75 12.328125 -8.59375 C 12.128906 -8.46875 11.925781 -8.34375 11.71875 -8.21875 C 11.59375 -8.164062 11.492188 -8.09375 11.421875 -8 C 11.359375 -7.90625 11.34375 -7.789062 11.375 -7.65625 C 11.375 -7.613281 11.375 -7.578125 11.375 -7.546875 C 11.507812 -6.710938 11.6875 -5.898438 11.90625 -5.109375 C 12.125 -4.316406 12.46875 -3.554688 12.9375 -2.828125 C 13.300781 -2.265625 13.671875 -1.847656 14.046875 -1.578125 C 14.816406 -1.171875 15.703125 -1.421875 16.703125 -2.328125 C 17.347656 -2.929688 17.925781 -3.59375 18.4375 -4.3125 C 18.957031 -5.03125 19.425781 -5.78125 19.84375 -6.5625 C 21.132812 -8.894531 22.226562 -11.335938 23.125 -13.890625 C 24.226562 -17.003906 25.164062 -20.171875 25.9375 -23.390625 C 26.707031 -26.617188 27.28125 -29.894531 27.65625 -33.21875 C 27.726562 -33.976562 27.789062 -34.75 27.84375 -35.53125 C 27.84375 -35.664062 27.84375 -35.800781 27.84375 -35.9375 C 27.863281 -36.320312 28.015625 -36.617188 28.296875 -36.828125 C 28.429688 -36.929688 28.578125 -37.015625 28.734375 -37.078125 C 28.890625 -37.140625 29.0625 -37.144531 29.25 -37.09375 C 29.34375 -37.050781 29.425781 -37 29.5 -36.9375 Z M 0.546875 -14.75 C 0.671875 -12.164062 1.671875 -10.304688 3.546875 -9.171875 C 4.035156 -8.890625 4.585938 -8.644531 5.203125 -8.4375 C 6.191406 -8.101562 7.191406 -8.023438 8.203125 -8.203125 C 8.578125 -8.273438 8.8125 -8.363281 8.90625 -8.46875 C 9 -8.582031 9.03125 -8.820312 9 -9.1875 C 9 -9.257812 9 -9.335938 9 -9.421875 C 9 -9.441406 8.988281 -9.460938 8.96875 -9.484375 C 8.757812 -11.703125 8.679688 -13.898438 8.734375 -16.078125 C 8.796875 -18.265625 8.941406 -20.453125 9.171875 -22.640625 C 9.347656 -24.648438 9.507812 -26.65625 9.65625 -28.65625 C 9.738281 -29.425781 9.675781 -30.179688 9.46875 -30.921875 C 9.375 -31.148438 9.273438 -31.328125 9.171875 -31.453125 C 9.015625 -31.492188 8.8125 -31.441406 8.5625 -31.296875 C 7.726562 -30.753906 7 -30.097656 6.375 -29.328125 C 4.019531 -26.628906 2.304688 -23.554688 1.234375 -20.109375 C 0.703125 -18.390625 0.472656 -16.601562 0.546875 -14.75 Z M 20.46875 19.90625 C 20.488281 19.90625 20.507812 19.914062 20.53125 19.9375 C 21.070312 20.21875 21.578125 20.140625 22.046875 19.703125 C 22.585938 19.117188 23.015625 18.460938 23.328125 17.734375 C 23.867188 16.566406 24.304688 15.359375 24.640625 14.109375 C 25.179688 12.140625 25.597656 10.140625 25.890625 8.109375 C 26.191406 6.078125 26.441406 4.035156 26.640625 1.984375 C 26.648438 1.921875 26.65625 1.867188 26.65625 1.828125 C 26.675781 1.710938 26.6875 1.59375 26.6875 1.46875 C 26.6875 1.351562 26.660156 1.234375 26.609375 1.109375 C 26.492188 1.109375 26.382812 1.140625 26.28125 1.203125 C 26.1875 1.265625 26.09375 1.34375 26 1.4375 C 25.957031 1.476562 25.90625 1.519531 25.84375 1.5625 C 23.289062 3.570312 21.347656 6.0625 20.015625 9.03125 C 19.179688 10.84375 18.75 12.773438 18.71875 14.828125 C 18.675781 15.910156 18.832031 16.96875 19.1875 18 C 19.3125 18.363281 19.472656 18.710938 19.671875 19.046875 C 19.867188 19.378906 20.132812 19.664062 20.46875 19.90625 Z M 20.46875 19.90625 "/></g></g></g><g fill="#b69780" fill-opacity="1"><g transform="translate(131.813213, 288.246427)"><g><path d="M 13.125 -5.296875 C 13.207031 -5.398438 13.28125 -5.425781 13.34375 -5.375 C 13.40625 -5.332031 13.421875 -5.25 13.390625 -5.125 C 13.234375 -4.3125 12.320312 -3.617188 10.65625 -3.046875 C 9.601562 -2.628906 8.664062 -2.441406 7.84375 -2.484375 C 7.019531 -2.535156 6.359375 -2.863281 5.859375 -3.46875 C 5.359375 -4.070312 5.082031 -5.015625 5.03125 -6.296875 C 5 -6.867188 4.878906 -7.109375 4.671875 -7.015625 C 4.472656 -6.921875 4.234375 -6.628906 3.953125 -6.140625 C 3.671875 -5.648438 3.390625 -5.09375 3.109375 -4.46875 C 2.835938 -3.851562 2.601562 -3.3125 2.40625 -2.84375 C 2.207031 -2.375 2.097656 -2.113281 2.078125 -2.0625 C 2.046875 -1.957031 2.015625 -1.859375 1.984375 -1.765625 C 1.898438 -1.484375 1.789062 -1.207031 1.65625 -0.9375 C 1.539062 -0.726562 1.367188 -0.582031 1.140625 -0.5 C 0.910156 -0.425781 0.671875 -0.4375 0.421875 -0.53125 C 0.265625 -0.625 0.160156 -0.75 0.109375 -0.90625 C 0.0234375 -1.164062 0 -1.421875 0.03125 -1.671875 C 0.03125 -1.703125 0.03125 -1.734375 0.03125 -1.765625 C 0.125 -3.003906 0.160156 -4.851562 0.140625 -7.3125 C 0.140625 -8.882812 0.148438 -10.550781 0.171875 -12.3125 C 0.191406 -14.082031 0.242188 -15.828125 0.328125 -17.546875 C 0.429688 -19.421875 0.617188 -21.128906 0.890625 -22.671875 C 1.160156 -24.222656 1.585938 -25.476562 2.171875 -26.4375 C 2.753906 -27.394531 3.566406 -27.929688 4.609375 -28.046875 C 5.054688 -28.085938 5.503906 -28.035156 5.953125 -27.890625 C 6.410156 -27.753906 6.84375 -27.488281 7.25 -27.09375 C 8.125 -26.269531 8.753906 -25.117188 9.140625 -23.640625 C 9.535156 -22.171875 9.578125 -20.472656 9.265625 -18.546875 C 8.960938 -16.628906 8.203125 -14.582031 6.984375 -12.40625 C 5.773438 -10.238281 4.007812 -8.046875 1.6875 -5.828125 C 1.65625 -5.765625 1.640625 -5.71875 1.640625 -5.6875 C 1.617188 -5.664062 1.609375 -5.644531 1.609375 -5.625 C 1.609375 -5.613281 1.609375 -5.601562 1.609375 -5.59375 C 1.609375 -5.582031 1.609375 -5.570312 1.609375 -5.5625 C 1.609375 -5.5625 1.613281 -5.5625 1.625 -5.5625 C 1.632812 -5.5625 1.640625 -5.554688 1.640625 -5.546875 C 1.640625 -5.535156 1.640625 -5.519531 1.640625 -5.5 C 1.648438 -5.488281 1.65625 -5.460938 1.65625 -5.421875 C 1.65625 -5.390625 1.65625 -5.347656 1.65625 -5.296875 C 1.65625 -5.253906 1.65625 -5.195312 1.65625 -5.125 C 1.65625 -5.050781 1.648438 -4.96875 1.640625 -4.875 C 1.640625 -4.78125 1.640625 -4.675781 1.640625 -4.5625 C 1.785156 -4.789062 1.925781 -5.039062 2.0625 -5.3125 C 2.382812 -5.9375 2.757812 -6.515625 3.1875 -7.046875 C 3.613281 -7.578125 4.1875 -7.90625 4.90625 -8.03125 C 5.207031 -8.070312 5.523438 -8.046875 5.859375 -7.953125 C 6.203125 -7.859375 6.425781 -7.625 6.53125 -7.25 C 6.613281 -6.789062 6.644531 -6.316406 6.625 -5.828125 C 6.601562 -5.472656 6.609375 -5.140625 6.640625 -4.828125 C 6.671875 -4.523438 6.773438 -4.265625 6.953125 -4.046875 C 7.128906 -3.828125 7.4375 -3.679688 7.875 -3.609375 C 8.457031 -3.523438 9.101562 -3.546875 9.8125 -3.671875 C 10.519531 -3.796875 11.175781 -4 11.78125 -4.28125 C 12.382812 -4.5625 12.832031 -4.898438 13.125 -5.296875 Z M 3.234375 -25.53125 C 2.878906 -24.5625 2.585938 -23.164062 2.359375 -21.34375 C 2.128906 -19.519531 1.957031 -17.59375 1.84375 -15.5625 C 1.738281 -13.53125 1.671875 -11.726562 1.640625 -10.15625 C 1.609375 -8.582031 1.59375 -7.550781 1.59375 -7.0625 C 2.46875 -7.757812 3.390625 -8.835938 4.359375 -10.296875 C 5.335938 -11.765625 6.195312 -13.375 6.9375 -15.125 C 7.6875 -16.882812 8.132812 -18.550781 8.28125 -20.125 C 8.363281 -21.476562 8.164062 -22.816406 7.6875 -24.140625 C 7.21875 -25.472656 6.625 -26.425781 5.90625 -27 C 5.40625 -27.34375 4.914062 -27.375 4.4375 -27.09375 C 3.957031 -26.820312 3.554688 -26.300781 3.234375 -25.53125 Z M 3.234375 -25.53125 "/></g></g></g><g fill="#b69780" fill-opacity="1"><g transform="translate(145.386529, 288.246427)"><g><path d="M 8.515625 -4.578125 C 8.640625 -4.648438 8.765625 -4.703125 8.890625 -4.734375 C 9.015625 -4.773438 9.09375 -4.773438 9.125 -4.734375 C 9.164062 -4.691406 9.113281 -4.582031 8.96875 -4.40625 C 8.519531 -3.90625 7.988281 -3.445312 7.375 -3.03125 C 6.769531 -2.613281 6.15625 -2.257812 5.53125 -1.96875 C 5.019531 -1.75 4.484375 -1.570312 3.921875 -1.4375 C 3.367188 -1.300781 2.816406 -1.269531 2.265625 -1.34375 C 1.710938 -1.425781 1.21875 -1.671875 0.78125 -2.078125 C 0.238281 -2.609375 -0.0507812 -3.285156 -0.09375 -4.109375 C -0.144531 -4.941406 0.046875 -5.632812 0.484375 -6.1875 C 1.054688 -6.832031 1.78125 -7.25 2.65625 -7.4375 C 3.53125 -7.625 4.316406 -7.484375 5.015625 -7.015625 C 5.359375 -6.773438 5.492188 -6.5 5.421875 -6.1875 C 5.359375 -5.875 5.191406 -5.578125 4.921875 -5.296875 C 4.648438 -5.023438 4.34375 -4.820312 4 -4.6875 C 3.5 -4.488281 3.050781 -4.445312 2.65625 -4.5625 C 2.257812 -4.675781 1.945312 -4.832031 1.71875 -5.03125 C 1.5625 -4.976562 1.460938 -4.757812 1.421875 -4.375 C 1.316406 -3.632812 1.546875 -3.035156 2.109375 -2.578125 C 2.578125 -2.234375 3.164062 -2.140625 3.875 -2.296875 C 4.582031 -2.453125 5.304688 -2.726562 6.046875 -3.125 C 6.785156 -3.53125 7.445312 -3.914062 8.03125 -4.28125 C 8.207031 -4.375 8.367188 -4.472656 8.515625 -4.578125 Z M 3.859375 -6.421875 C 3.773438 -6.535156 3.640625 -6.582031 3.453125 -6.5625 C 3.265625 -6.539062 3.066406 -6.484375 2.859375 -6.390625 C 2.660156 -6.296875 2.484375 -6.191406 2.328125 -6.078125 C 2.179688 -5.972656 2.117188 -5.898438 2.140625 -5.859375 C 2.140625 -5.835938 2.15625 -5.789062 2.1875 -5.71875 C 2.226562 -5.65625 2.28125 -5.585938 2.34375 -5.515625 C 2.414062 -5.453125 2.507812 -5.40625 2.625 -5.375 C 2.75 -5.34375 2.90625 -5.351562 3.09375 -5.40625 C 3.382812 -5.488281 3.585938 -5.59375 3.703125 -5.71875 C 3.816406 -5.851562 3.878906 -5.984375 3.890625 -6.109375 C 3.910156 -6.242188 3.898438 -6.347656 3.859375 -6.421875 Z M 3.859375 -6.421875 "/></g></g></g><g fill="#b69780" fill-opacity="1"><g transform="translate(154.459055, 288.246427)"><g><path d="M 6.09375 -4.578125 C 6.21875 -4.828125 6.300781 -4.941406 6.34375 -4.921875 C 6.394531 -4.898438 6.40625 -4.796875 6.375 -4.609375 C 6.351562 -4.429688 6.316406 -4.226562 6.265625 -4 C 6.179688 -3.65625 6.035156 -3.25 5.828125 -2.78125 C 5.628906 -2.320312 5.40625 -1.90625 5.15625 -1.53125 C 4.78125 -1.007812 4.320312 -0.613281 3.78125 -0.34375 C 3.238281 -0.0820312 2.742188 -0.0195312 2.296875 -0.15625 C 1.859375 -0.289062 1.601562 -0.707031 1.53125 -1.40625 C 1.519531 -1.988281 1.570312 -2.632812 1.6875 -3.34375 C 1.71875 -3.632812 1.757812 -3.921875 1.8125 -4.203125 C 1.8125 -4.296875 1.785156 -4.367188 1.734375 -4.421875 C 1.679688 -4.484375 1.613281 -4.507812 1.53125 -4.5 C 1.46875 -4.5 1.40625 -4.5 1.34375 -4.5 C 0.988281 -4.4375 0.628906 -4.441406 0.265625 -4.515625 C -0.160156 -4.640625 -0.410156 -4.851562 -0.484375 -5.15625 C -0.554688 -5.457031 -0.550781 -5.851562 -0.46875 -6.34375 C -0.425781 -6.695312 -0.296875 -6.960938 -0.078125 -7.140625 C 0.140625 -7.316406 0.394531 -7.382812 0.6875 -7.34375 C 1.09375 -7.3125 1.289062 -7.15625 1.28125 -6.875 C 1.269531 -6.601562 1.191406 -6.3125 1.046875 -6 C 0.921875 -5.738281 0.851562 -5.519531 0.84375 -5.34375 C 0.84375 -5.164062 0.992188 -5.101562 1.296875 -5.15625 C 1.367188 -5.175781 1.445312 -5.203125 1.53125 -5.234375 C 1.644531 -5.273438 1.773438 -5.3125 1.921875 -5.34375 C 2.066406 -5.382812 2.257812 -5.394531 2.5 -5.375 C 2.78125 -5.363281 2.960938 -5.234375 3.046875 -4.984375 C 3.140625 -4.742188 3.179688 -4.4375 3.171875 -4.0625 C 3.160156 -3.695312 3.125 -3.320312 3.0625 -2.9375 C 3 -2.457031 2.96875 -2.046875 2.96875 -1.703125 C 2.96875 -1.359375 3.066406 -1.160156 3.265625 -1.109375 C 3.523438 -1.035156 3.910156 -1.269531 4.421875 -1.8125 C 4.941406 -2.363281 5.5 -3.285156 6.09375 -4.578125 Z M 6.09375 -4.578125 "/></g></g></g><g fill="#b69780" fill-opacity="1"><g transform="translate(161.285965, 288.246427)"><g><path d="M 6.09375 -4.578125 C 6.21875 -4.828125 6.300781 -4.941406 6.34375 -4.921875 C 6.394531 -4.898438 6.40625 -4.796875 6.375 -4.609375 C 6.351562 -4.429688 6.316406 -4.226562 6.265625 -4 C 6.179688 -3.65625 6.035156 -3.25 5.828125 -2.78125 C 5.628906 -2.320312 5.40625 -1.90625 5.15625 -1.53125 C 4.78125 -1.007812 4.320312 -0.613281 3.78125 -0.34375 C 3.238281 -0.0820312 2.742188 -0.0195312 2.296875 -0.15625 C 1.859375 -0.289062 1.601562 -0.707031 1.53125 -1.40625 C 1.519531 -1.988281 1.570312 -2.632812 1.6875 -3.34375 C 1.71875 -3.632812 1.757812 -3.921875 1.8125 -4.203125 C 1.8125 -4.296875 1.785156 -4.367188 1.734375 -4.421875 C 1.679688 -4.484375 1.613281 -4.507812 1.53125 -4.5 C 1.46875 -4.5 1.40625 -4.5 1.34375 -4.5 C 0.988281 -4.4375 0.628906 -4.441406 0.265625 -4.515625 C -0.160156 -4.640625 -0.410156 -4.851562 -0.484375 -5.15625 C -0.554688 -5.457031 -0.550781 -5.851562 -0.46875 -6.34375 C -0.425781 -6.695312 -0.296875 -6.960938 -0.078125 -7.140625 C 0.140625 -7.316406 0.394531 -7.382812 0.6875 -7.34375 C 1.09375 -7.3125 1.289062 -7.15625 1.28125 -6.875 C 1.269531 -6.601562 1.191406 -6.3125 1.046875 -6 C 0.921875 -5.738281 0.851562 -5.519531 0.84375 -5.34375 C 0.84375 -5.164062 0.992188 -5.101562 1.296875 -5.15625 C 1.367188 -5.175781 1.445312 -5.203125 1.53125 -5.234375 C 1.644531 -5.273438 1.773438 -5.3125 1.921875 -5.34375 C 2.066406 -5.382812 2.257812 -5.394531 2.5 -5.375 C 2.78125 -5.363281 2.960938 -5.234375 3.046875 -4.984375 C 3.140625 -4.742188 3.179688 -4.4375 3.171875 -4.0625 C 3.160156 -3.695312 3.125 -3.320312 3.0625 -2.9375 C 3 -2.457031 2.96875 -2.046875 2.96875 -1.703125 C 2.96875 -1.359375 3.066406 -1.160156 3.265625 -1.109375 C 3.523438 -1.035156 3.910156 -1.269531 4.421875 -1.8125 C 4.941406 -2.363281 5.5 -3.285156 6.09375 -4.578125 Z M 6.09375 -4.578125 "/></g></g></g><g fill="#b69780" fill-opacity="1"><g transform="translate(168.112874, 288.246427)"><g><path d="M 5.46875 -6.3125 C 5.757812 -6.34375 5.960938 -6.289062 6.078125 -6.15625 C 6.171875 -6 6.210938 -5.460938 6.203125 -4.546875 C 6.191406 -3.640625 6.144531 -2.582031 6.0625 -1.375 C 5.988281 -0.164062 5.898438 0.945312 5.796875 1.96875 C 5.703125 3 5.628906 3.71875 5.578125 4.125 C 5.171875 6.46875 4.441406 8.421875 3.390625 9.984375 C 2.335938 11.554688 1.132812 12.769531 -0.21875 13.625 C -1.570312 14.488281 -2.90625 15.007812 -4.21875 15.1875 C -5.53125 15.375 -6.644531 15.25 -7.5625 14.8125 C -8.476562 14.375 -9.023438 13.644531 -9.203125 12.625 C -9.378906 11.613281 -9.007812 10.335938 -8.09375 8.796875 C -7.1875 7.253906 -5.5625 5.472656 -3.21875 3.453125 C -2.289062 2.679688 -1.003906 1.75 0.640625 0.65625 C 2.285156 -0.4375 3.59375 -1.175781 4.5625 -1.5625 C 4.582031 -1.75 4.597656 -1.945312 4.609375 -2.15625 C 4.210938 -1.707031 3.804688 -1.445312 3.390625 -1.375 C 2.972656 -1.300781 2.59375 -1.296875 2.25 -1.359375 C 2.21875 -1.359375 2.195312 -1.359375 2.1875 -1.359375 C 1.5625 -1.441406 1.066406 -1.734375 0.703125 -2.234375 C 0.347656 -2.734375 0.117188 -3.300781 0.015625 -3.9375 C -0.078125 -4.570312 -0.0507812 -5.140625 0.09375 -5.640625 C 0.25 -6.148438 0.539062 -6.457031 0.96875 -6.5625 C 1.132812 -6.582031 1.320312 -6.59375 1.53125 -6.59375 C 1.75 -6.601562 1.925781 -6.582031 2.0625 -6.53125 C 2.207031 -6.476562 2.265625 -6.363281 2.234375 -6.1875 C 2.085938 -5.6875 2.003906 -5.128906 1.984375 -4.515625 C 1.960938 -3.910156 2.015625 -3.378906 2.140625 -2.921875 C 2.265625 -2.472656 2.488281 -2.226562 2.8125 -2.1875 C 3.132812 -2.15625 3.570312 -2.457031 4.125 -3.09375 C 4.375 -3.40625 4.546875 -3.742188 4.640625 -4.109375 C 4.640625 -4.503906 4.632812 -4.878906 4.625 -5.234375 C 4.613281 -5.554688 4.609375 -5.828125 4.609375 -6.046875 C 4.679688 -6.160156 4.796875 -6.234375 4.953125 -6.265625 C 5.109375 -6.296875 5.25 -6.3125 5.375 -6.3125 C 5.414062 -6.3125 5.445312 -6.3125 5.46875 -6.3125 Z M 4.515625 0.109375 C 4.515625 0.0976562 4.515625 0.0820312 4.515625 0.0625 C 4.535156 -0.0195312 4.546875 -0.125 4.546875 -0.25 C 4.554688 -0.382812 4.546875 -0.488281 4.515625 -0.5625 C 4.492188 -0.644531 4.4375 -0.660156 4.34375 -0.609375 C 4.25 -0.535156 4.140625 -0.457031 4.015625 -0.375 C 3.203125 0.175781 2.140625 0.941406 0.828125 1.921875 C -0.484375 2.898438 -1.796875 4.007812 -3.109375 5.25 C -3.378906 5.5 -3.753906 5.867188 -4.234375 6.359375 C -4.722656 6.859375 -5.234375 7.425781 -5.765625 8.0625 C -6.296875 8.707031 -6.757812 9.367188 -7.15625 10.046875 C -7.5625 10.722656 -7.8125 11.363281 -7.90625 11.96875 C -8.007812 12.570312 -7.875 13.09375 -7.5 13.53125 C -7.007812 14.050781 -6.300781 14.273438 -5.375 14.203125 C -4.445312 14.128906 -3.425781 13.773438 -2.3125 13.140625 C -1.207031 12.515625 -0.144531 11.609375 0.875 10.421875 C 1.90625 9.242188 2.753906 7.789062 3.421875 6.0625 C 4.097656 4.34375 4.460938 2.359375 4.515625 0.109375 Z M 4.515625 0.109375 "/></g></g></g><g clip-path="url(#211557fd92)"><path fill="#825432" d="M 198.816406 249.730469 C 193.429688 249.207031 195.699219 249.550781 186.414062 247.273438 C 185.015625 246.929688 185.699219 246.785156 185.292969 245.980469 C 183.128906 241.652344 176.828125 218.988281 169.8125 218.988281 C 166.121094 218.988281 166.082031 223.101562 157.949219 223.101562 C 153.214844 223.101562 147.171875 220.445312 147.171875 217.484375 C 147.171875 213.988281 152.695312 208.769531 152.695312 202.707031 C 152.695312 194.421875 144.335938 195.632812 144.335938 193.398438 C 144.335938 193.078125 144.589844 192.75 145.089844 192.4375 C 152.113281 188.039062 154.292969 184.332031 158.265625 179.246094 C 158.332031 179.160156 158.542969 178.914062 158.757812 178.914062 C 158.921875 178.914062 159.066406 179.050781 159.1875 179.320312 C 162.054688 185.574219 162.261719 187.109375 162.261719 188.582031 C 162.261719 193.246094 157.515625 195.507812 153.054688 195.507812 C 148.78125 195.507812 147.285156 194 145.167969 193.476562 C 145.683594 194.800781 153.34375 194.542969 153.34375 202.730469 C 153.34375 209.105469 147.835938 214.261719 147.835938 217.480469 C 147.832031 217.875 147.917969 218.25 148.097656 218.601562 C 148.277344 218.953125 148.53125 219.246094 148.855469 219.472656 C 148.925781 219.527344 152.949219 222.449219 157.753906 222.449219 C 160.109375 222.449219 160.664062 222.164062 162.203125 221.894531 C 164.816406 221.4375 173.246094 199.710938 173.558594 192.03125 C 173.746094 187.402344 175.265625 180.65625 175.265625 177.867188 C 175.265625 177.808594 175.253906 177.746094 175.246094 177.667969 C 175.226562 177.671875 162.109375 181.859375 161.753906 181.859375 C 160.234375 181.859375 158.316406 172.679688 158.316406 168.808594 C 158.316406 162.246094 161.546875 157.46875 165.328125 157.46875 C 169.660156 157.46875 176.691406 163.566406 176.691406 170.230469 C 176.691406 171.8125 176.417969 173.28125 176.007812 176.515625 C 176.207031 176.496094 188.296875 172.503906 188.296875 169.578125 C 188.296875 168.109375 185.996094 166.289062 185.925781 166.222656 C 182.273438 162.792969 184.316406 160.035156 182.113281 160.035156 C 180.046875 160.035156 174.398438 161.9375 174.378906 161.9375 C 174.277344 161.9375 174.003906 161.820312 174.003906 161.664062 C 174.003906 161.144531 179.808594 155.734375 179.855469 155.597656 C 179.945312 155.355469 180.632812 153.421875 180.632812 153.296875 C 180.621094 153.171875 180.574219 153.0625 180.496094 152.96875 C 179.792969 151.925781 178.546875 151.582031 178.546875 150.5625 C 178.546875 150.199219 178.578125 150.40625 178.960938 148.589844 C 178.535156 148.875 175.328125 151.714844 174.488281 151.714844 C 174.292969 151.710938 174.15625 151.621094 174.074219 151.445312 C 173.792969 150.585938 173.632812 149.699219 173.589844 148.792969 C 173.589844 146.527344 175.167969 145.144531 176.605469 145.144531 C 177.34375 145.167969 178 145.417969 178.570312 145.890625 C 179.132812 146.324219 179.335938 147.046875 179.535156 147.621094 C 179.574219 147.605469 179.613281 147.601562 179.617188 147.589844 C 179.824219 146.871094 180.269531 145.480469 180.269531 145.113281 C 180.269531 144.441406 179.617188 143.238281 178.386719 142.726562 C 176.832031 142.074219 175.269531 141.460938 173.59375 141.179688 C 167.46875 140.160156 167.765625 133.402344 159.25 127.25 C 154.859375 124.082031 151.0625 123.5625 151.039062 123.5625 C 151.011719 123.566406 150.988281 123.574219 150.964844 123.585938 C 150.964844 123.601562 150.960938 123.621094 150.960938 123.640625 C 150.960938 125.605469 157.460938 137.925781 157.460938 160.417969 C 157.460938 171.894531 156.773438 189.761719 140.953125 189.761719 C 137.878906 189.761719 136.226562 188.703125 135.714844 188.703125 C 135.160156 188.703125 131.105469 191.066406 123.847656 191.066406 C 119.429688 191.066406 110.023438 190.203125 102.238281 181.34375 C 102.03125 181.808594 100.171875 186.152344 100.171875 191.285156 C 100.140625 192.894531 100.351562 194.472656 100.804688 196.019531 C 101.253906 197.566406 101.925781 199.011719 102.8125 200.355469 C 102.933594 200.324219 113.183594 193.761719 125.167969 193.761719 C 134.5625 193.761719 141.617188 198.265625 141.617188 202 C 141.617188 205.785156 135.46875 208.9375 124.910156 208.9375 C 107.871094 208.9375 102.652344 201.355469 102.628906 201.339844 C 101.75 202.050781 96.90625 205.394531 96.90625 211.304688 C 96.90625 219.753906 108.8125 228.875 120.246094 228.875 C 122.296875 228.875 122.707031 214.074219 133.324219 214.074219 C 137.214844 214.074219 140.238281 217.90625 140.238281 220.546875 C 140.230469 221.855469 139.761719 222.972656 138.824219 223.890625 C 137.511719 225.222656 131.652344 229.601562 122.453125 229.601562 C 121.707031 229.601562 121.285156 229.574219 121.15625 229.574219 C 120.835938 229.5625 120.554688 229.65625 120.304688 229.855469 C 118.777344 231.042969 117.175781 231.148438 114.789062 232.5 C 110.402344 234.992188 101.941406 248.46875 101.839844 248.46875 C 101.636719 248.460938 101.53125 248.355469 101.515625 248.15625 C 101.515625 247.636719 103.824219 244.183594 104.839844 242.835938 C 114.234375 230.34375 112.921875 232.789062 119.605469 229.621094 C 119.515625 229.492188 119.394531 229.433594 119.234375 229.449219 L 119.179688 229.449219 C 109.523438 229.449219 96.242188 220.574219 96.242188 211.300781 C 96.242188 204.761719 102.144531 200.890625 102.273438 200.789062 C 101.746094 199.890625 99.515625 196.882812 99.515625 191.164062 C 99.515625 185.636719 101.683594 181.109375 101.683594 180.773438 C 101.679688 180.621094 101.625 180.484375 101.527344 180.363281 C 96.257812 173.109375 96.347656 165.664062 95.917969 162.304688 L 95.917969 160.347656 C 99.761719 122.773438 121.179688 116.28125 130.621094 116.28125 C 133.085938 116.28125 147.316406 116.53125 147.316406 128.589844 C 147.316406 146.734375 111.84375 158.320312 102.515625 180.578125 C 107.707031 187.265625 116.207031 190.421875 123.660156 190.421875 C 130.375 190.421875 134.730469 188.328125 134.800781 188.234375 C 134.53125 188.039062 125.320312 182.980469 125.320312 172.015625 C 125.320312 163.730469 132.722656 157.402344 137.832031 157.402344 C 144.015625 157.402344 147.667969 165.152344 147.667969 171.269531 C 147.667969 183.03125 137.101562 188 136.628906 188.269531 C 137.585938 188.707031 139.332031 189.09375 141.019531 189.09375 C 158.554688 189.09375 156.808594 163.875 156.808594 160.765625 C 156.808594 137.910156 150.34375 125.878906 150.34375 123.671875 C 150.355469 123.460938 150.386719 123.25 150.445312 123.042969 C 150.460938 122.875 150.554688 122.796875 150.722656 122.804688 C 150.761719 122.804688 150.796875 122.808594 150.835938 122.816406 C 166.453125 126.347656 165.648438 138.847656 175.15625 140.839844 C 175.214844 140.765625 175.25 140.742188 175.253906 140.714844 C 175.28125 140.371094 175.300781 140.03125 175.300781 139.691406 C 175.300781 134.300781 169.902344 134.824219 167.3125 121.957031 C 165.90625 114.964844 155.414062 114.257812 155.414062 105.007812 C 155.414062 92.113281 178.523438 71.160156 202.15625 71.160156 C 206.78125 71.160156 220.636719 73.59375 220.636719 77.503906 C 220.636719 78.28125 219.957031 78.980469 217.554688 79.5 C 175.613281 88.640625 166.035156 113.46875 166.035156 114.273438 C 166.035156 115.675781 167.035156 117.640625 167.902344 121.621094 C 170.976562 135.710938 175.964844 133.636719 175.964844 139.757812 C 175.964844 140.238281 175.9375 140.375 175.9375 140.632812 C 175.9375 140.753906 175.941406 140.882812 175.941406 141.03125 C 178.007812 141.871094 180.945312 142.707031 180.945312 145.117188 C 180.945312 146.664062 179.359375 149.359375 179.359375 150.597656 C 179.359375 151.089844 179.621094 151.222656 179.96875 151.453125 C 180.367188 149.75 182.234375 147.902344 182.863281 147.902344 C 183.03125 147.90625 183.179688 147.964844 183.300781 148.085938 C 183.421875 148.203125 183.488281 148.347656 183.492188 148.519531 C 183.492188 148.9375 182.953125 149.578125 181.894531 150.765625 C 182.9375 150.589844 182.996094 150.570312 183.25 150.570312 C 183.839844 150.570312 184.332031 150.78125 184.734375 151.210938 C 186.238281 152.710938 185.460938 153.558594 187.277344 153.558594 C 187.707031 153.570312 188.109375 153.464844 188.484375 153.246094 C 191.117188 151.679688 191.152344 151.71875 191.273438 151.71875 C 191.566406 151.71875 191.558594 152.097656 191.558594 152.136719 C 191.558594 152.5 189.167969 156.789062 189.167969 157.273438 C 189.167969 157.3125 189.023438 157.6875 190.757812 158.285156 C 194.898438 159.722656 192.441406 168.507812 197.472656 168.507812 C 199.179688 168.507812 205.652344 166.148438 209.480469 161.304688 C 207.894531 160.207031 198.710938 154.742188 198.710938 145.335938 C 198.710938 139.820312 202.90625 135.359375 207.179688 135.359375 C 212.035156 135.359375 214.886719 140.945312 214.886719 146.449219 C 214.886719 146.582031 214.835938 154.472656 210.449219 161.125 C 213.8125 164.070312 214.425781 164.828125 215.84375 171.988281 C 215.863281 171.96875 224.589844 161.859375 245.445312 145.738281 C 238.042969 135.675781 238.15625 130.667969 236.710938 125.875 C 236.152344 126 235.585938 126.0625 235.011719 126.066406 C 228.878906 126.066406 222.605469 116.976562 222.605469 106.140625 C 222.605469 99.140625 224.59375 94.429688 226.820312 94.429688 C 227.957031 94.429688 228.90625 95.621094 229.320312 95.738281 C 226.839844 88.570312 221.269531 83.425781 212.964844 83.425781 C 198.039062 83.425781 178.78125 99.777344 178.78125 110.136719 C 178.78125 114 181.5 118.566406 186.027344 118.566406 C 195.875 118.566406 208.089844 90.664062 217.886719 90.664062 C 221.109375 90.664062 220.699219 96.144531 220.699219 100.296875 C 220.699219 123.605469 215.75 128.160156 211.515625 128.160156 C 209.117188 128.160156 208.984375 125.042969 208.984375 124.574219 C 208.984375 121.421875 212.320312 118.964844 212.320312 116.324219 C 212.320312 114.972656 210.917969 114.195312 210.023438 114.195312 C 209.957031 114.195312 209.890625 114.199219 209.820312 114.207031 C 209.8125 114.226562 209.804688 114.25 209.796875 114.269531 C 210.074219 114.898438 210.203125 115.558594 210.191406 116.246094 C 210.191406 117.460938 209.367188 122.710938 208.03125 122.710938 C 207.277344 122.710938 207.132812 121.351562 207.132812 120.898438 C 207.117188 118.464844 207.683594 116.175781 208.832031 114.027344 C 207.570312 112.476562 206.335938 111.765625 206.335938 109.953125 C 206.335938 107.726562 208.324219 105.609375 209.765625 105.609375 C 212.613281 105.609375 214.082031 113.46875 214.328125 114.4375 C 214.328125 114.449219 214.355469 114.453125 214.414062 114.480469 C 214.414062 114.398438 214.417969 114.320312 214.417969 114.25 C 214.417969 110.714844 213.171875 104.027344 209.34375 104.027344 C 208.058594 104.027344 204.125 105.421875 204.125 111.132812 C 204.125 114.453125 205.753906 116.394531 205.753906 116.417969 C 205.742188 116.609375 205.640625 116.707031 205.453125 116.714844 C 204.816406 116.714844 203.484375 114.117188 203.484375 111.21875 C 203.484375 104.46875 208.261719 103.386719 209.316406 103.386719 C 215.605469 103.386719 215.179688 116.449219 215.179688 117.171875 C 215.179688 117.242188 215.15625 120.476562 215.007812 120.816406 C 214.945312 120.941406 214.84375 121.011719 214.710938 121.035156 C 213.722656 121.035156 215.023438 113.8125 210.949219 107.042969 C 210.886719 106.941406 210.378906 106.269531 209.753906 106.269531 C 208.917969 106.269531 206.992188 107.84375 206.992188 109.96875 C 206.992188 111.246094 207.667969 111.742188 209.359375 113.585938 C 209.546875 113.539062 209.742188 113.515625 209.9375 113.515625 C 210.9375 113.515625 212.980469 114.332031 212.980469 116.347656 C 212.980469 119.261719 209.648438 121.605469 209.648438 124.578125 C 209.648438 124.617188 209.636719 127.503906 211.515625 127.503906 C 217.671875 127.503906 220.058594 117.132812 220.058594 101.242188 C 220.058594 95.734375 220.328125 91.316406 217.871094 91.316406 C 207.96875 91.316406 196.820312 119.21875 185.996094 119.21875 C 181.679688 119.21875 178.121094 115.117188 178.121094 110.097656 C 178.121094 99.410156 197.699219 82.753906 213.09375 82.753906 C 230.683594 82.753906 235.382812 109.757812 236.066406 117.210938 C 237.957031 137.859375 246.191406 145.027344 246.191406 145.792969 C 246.191406 145.953125 246.074219 146.089844 245.828125 146.277344 C 234.585938 154.816406 213.308594 171.878906 210.890625 183.195312 C 209.980469 187.449219 209.707031 191.402344 209.363281 195.015625 C 211.53125 192.117188 238.675781 154.316406 249.011719 154.316406 C 254.855469 154.316406 273.660156 168.671875 273.660156 196.046875 C 273.660156 216.910156 267.742188 242.222656 265.820312 242.203125 C 265.746094 242.203125 265.414062 242.105469 265.414062 241.90625 C 265.414062 241.886719 273.046875 223.765625 273.046875 196.058594 C 273.046875 186.828125 271.21875 180.707031 270.757812 180.132812 C 271.140625 182.238281 271.34375 184.363281 271.367188 186.503906 C 271.367188 203.890625 254.71875 208.007812 249.542969 208.007812 C 229.785156 208.007812 230.886719 183.9375 230.839844 183.851562 C 224.058594 205.5625 231.15625 251.902344 198.816406 249.730469 Z M 186.179688 246.503906 C 195.667969 249.300781 198.964844 249.035156 199.90625 249.035156 C 230.921875 249.035156 221.757812 207.925781 231.003906 181.105469 C 231.269531 180.328125 232.871094 162.390625 249.746094 162.390625 C 259.9375 162.390625 265.457031 169.519531 266.757812 171.027344 C 266.691406 169.351562 254.570312 153.765625 249.039062 154.976562 C 238.464844 157.292969 219.570312 183.0625 208.820312 197.222656 C 197.855469 222.109375 186.914062 245.066406 186.179688 246.503906 Z M 190.410156 152.910156 C 188.429688 153.957031 188.121094 154.210938 187.199219 154.210938 C 186.332031 154.210938 185.503906 153.972656 185.15625 152.957031 C 185.015625 152.539062 184.273438 151.21875 183.230469 151.21875 C 183.199219 151.21875 181.667969 151.277344 180.582031 151.992188 C 180.707031 152.1875 180.847656 152.375 181 152.546875 C 181.183594 152.707031 181.277344 152.90625 181.277344 153.148438 C 181.277344 153.246094 181.261719 153.34375 181.234375 153.4375 C 180.660156 155.484375 180.585938 155.941406 179.734375 156.585938 C 178.207031 157.742188 175.917969 160.570312 175.914062 160.601562 C 175.941406 160.613281 175.96875 160.621094 175.996094 160.625 C 176.171875 160.625 181.070312 159.371094 182.039062 159.371094 C 185.214844 159.371094 182.832031 162.988281 186.6875 166.019531 C 187.675781 166.800781 188.957031 168.3125 188.957031 169.578125 C 188.957031 173.648438 175.988281 176.441406 175.882812 177.757812 C 175.203125 186.042969 174.378906 187.230469 174.261719 191.390625 C 173.90625 203.738281 165.015625 217.558594 164.511719 220.933594 C 167.101562 219.117188 167.933594 218.324219 169.773438 218.324219 C 176.535156 218.324219 180.480469 233.128906 184.292969 241.28125 C 184.351562 241.191406 184.378906 241.089844 184.371094 240.984375 C 184.371094 240.691406 184.347656 235.972656 184.347656 234.441406 C 184.339844 231.238281 184.621094 228.058594 185.191406 224.90625 C 187.234375 213.714844 209.351562 186.675781 209.652344 184.65625 C 210.476562 179.160156 215.183594 173.234375 215.183594 172.378906 C 215.183594 172.3125 215.175781 172.242188 215.164062 172.175781 C 214.175781 166.949219 213.875 164.671875 210.039062 161.679688 C 206.984375 165.335938 200.84375 169.164062 197.480469 169.164062 C 191.859375 169.164062 194.167969 160.167969 190.535156 158.90625 C 188.40625 158.167969 188.5 157.507812 188.5 157.320312 C 188.5 156.761719 188.78125 156.402344 190.410156 152.910156 Z M 102.050781 179.960938 C 112.089844 157.886719 146.65625 145.652344 146.65625 128.585938 C 146.65625 116.816406 131.894531 116.945312 130.785156 116.945312 C 104.273438 116.945312 96.695312 149.300781 96.695312 161.359375 C 96.695312 172.046875 100.351562 177.574219 102.050781 179.960938 Z M 231.550781 184.429688 C 231.914062 203.761719 243.160156 207.34375 249.546875 207.34375 C 256.1875 207.34375 270.707031 202.113281 270.707031 186.554688 C 270.707031 170.894531 259.882812 163.039062 249.648438 163.039062 C 246.414062 163.042969 232.90625 163.746094 231.550781 184.429688 Z M 166.316406 118.109375 C 165.515625 115.183594 165.410156 115.050781 165.410156 114.238281 C 165.410156 110.855469 170.699219 105.011719 170.71875 104.988281 C 194.421875 77.71875 219.980469 80.464844 219.980469 77.480469 C 219.980469 74.421875 207.070312 71.824219 202.253906 71.824219 C 178.390625 71.824219 156.070312 92.917969 156.070312 105.042969 C 156.070312 106.132812 156.023438 109.558594 160.195312 112.9375 C 167.292969 118.683594 165.921875 117.898438 166.316406 118.109375 Z M 147.015625 171.667969 C 146.964844 164.109375 142.808594 158.058594 137.851562 158.058594 C 133.699219 158.058594 125.972656 163.445312 125.972656 172.011719 C 125.972656 181.402344 133.960938 187.839844 135.742188 187.839844 C 136.746094 187.839844 146.609375 182.8125 147.015625 171.667969 Z M 209.351562 186.730469 L 209.257812 186.71875 C 188.140625 217.824219 184.945312 217.121094 184.945312 237.324219 C 184.945312 243.984375 185.554688 244.351562 185.9375 245.503906 C 187.324219 243.039062 189.722656 237.777344 193.742188 228.304688 C 207.3125 198.644531 208.578125 196.121094 209.351562 186.730469 Z M 103.242188 200.9375 C 108.179688 207.695312 122.121094 208.273438 124.90625 208.273438 C 135.570312 208.273438 140.957031 205.046875 140.957031 201.992188 C 140.957031 198.851562 134.445312 194.40625 125.101562 194.40625 C 115.832031 194.40625 106.257812 198.824219 103.242188 200.9375 Z M 175.289062 176.917969 C 175.765625 173.25 176.039062 171.652344 176.039062 170.359375 C 176.039062 163.878906 169.222656 158.121094 165.332031 158.121094 C 162.265625 158.121094 158.96875 162.066406 158.96875 168.871094 C 158.96875 173.152344 161.101562 181.175781 161.804688 181.175781 C 162.078125 181.175781 171.410156 178.28125 175.289062 176.917969 Z M 209.882812 160.769531 C 214.167969 154.578125 214.214844 146.5625 214.214844 146.449219 C 214.214844 141.386719 211.722656 136.03125 207.167969 136.03125 C 203.433594 136.03125 199.398438 139.9375 199.398438 145.339844 C 199.398438 153 205.367188 157.75 209.882812 160.769531 Z M 235.339844 125.472656 C 235.777344 125.496094 236.183594 125.386719 236.558594 125.15625 C 235.738281 120.199219 233.132812 95.097656 226.828125 95.097656 C 225.445312 95.097656 223.261719 98.511719 223.261719 106.109375 C 223.261719 117.710938 229.949219 125.472656 235.339844 125.472656 Z M 121.632812 228.800781 C 121.636719 228.824219 121.640625 228.851562 121.648438 228.878906 C 121.722656 228.925781 121.59375 228.945312 122.628906 228.945312 C 129.957031 228.945312 139.582031 225.035156 139.582031 220.554688 C 139.582031 218.085938 136.671875 214.726562 133.3125 214.726562 C 128.980469 214.726562 124.253906 218.964844 122.773438 225.164062 C 121.867188 228.949219 121.632812 228.613281 121.632812 228.800781 Z M 145.722656 192.863281 C 145.824219 192.941406 149.253906 194.847656 153.097656 194.847656 C 157.332031 194.847656 161.566406 192.816406 161.566406 188.585938 C 161.566406 187.109375 161.410156 185.617188 158.664062 179.808594 C 152.5 187.683594 153.308594 187.417969 145.722656 192.863281 Z M 178.335938 146.625 C 177.898438 146.09375 177.335938 145.824219 176.648438 145.820312 C 175.191406 145.820312 174.246094 147.238281 174.246094 148.769531 C 174.246094 149.492188 174.433594 150.199219 174.585938 150.90625 C 174.625 150.90625 174.65625 150.914062 174.679688 150.914062 C 174.726562 150.914062 176.203125 149.921875 176.675781 149.59375 C 177.019531 149.355469 176.964844 147.632812 178.335938 146.625 Z M 208.058594 122.003906 C 208.792969 121.316406 209.523438 117.589844 209.523438 115.871094 C 209.527344 115.453125 209.414062 115.074219 209.183594 114.726562 C 208.261719 116.667969 207.796875 118.710938 207.789062 120.855469 C 207.789062 121.195312 207.769531 121.625 208.058594 122.003906 Z M 180.988281 150.597656 C 181.585938 150.210938 182.488281 149.167969 182.679688 148.644531 C 181.992188 149.191406 181.429688 149.839844 180.988281 150.597656 Z M 177.742188 148.644531 C 178.332031 148.242188 178.585938 147.890625 178.585938 147.488281 C 178.585938 147.421875 178.582031 147.359375 178.570312 147.296875 C 178.085938 147.636719 177.886719 148.125 177.742188 148.644531 Z M 177.742188 148.644531 " fill-opacity="1" fill-rule="nonzero"/></g><g clip-path="url(#cbf7614b72)"><g clip-path="url(#c1744fb50b)"><g clip-path="url(#5a2cbcca70)"><path fill="#b69780" d="M 184.054688 280.828125 C 183.359375 277.027344 188.371094 274.65625 190.792969 278.765625 C 191.609375 274.066406 197.132812 274.515625 197.828125 278.320312 C 198.578125 282.453125 192.648438 288.945312 192.648438 288.945312 C 192.648438 288.945312 184.804688 284.960938 184.054688 280.828125 Z M 184.054688 280.828125 " fill-opacity="1" fill-rule="nonzero"/></g></g></g></svg>